# xmcd
#
# Track frame offsets:
#	150
#	35050
#	67061
#	137559
#	185200
#	218902
#	256810
#
# Disc length: 3926 seconds
# Revision: 0
# Processed by: cddbd v1.5.2PL0 Copyright (c) Steve Scherf et al.
# Submitted via: dBpowerAMP V12.0
#
DISCID=6e0f5407
DTITLE=Coco Montoya - Coco Live
DYEAR=2014
DGENRE=Blues
TTITLE0=Fannie Mae
TTITLE1=I Need Your Love In My Life
TTITLE2=Good Days, Bad Days
TTITLE3=I Want It All Back
TTITLE4=I Won't Beg
TTITLE5=You'd Think I'd Know Better  By Now
TTITLE6=My Side Of The Fence
EXTD=
EXTT0=
EXTT1=
EXTT2=
EXTT3=
EXTT4=
EXTT5=
EXTT6=
PLAYORDER=
